<?xml version="1.0" encoding="iso-8859-1"?>
<!-- Generator: Adobe Illustrator 19.0.0, SVG Export Plug-In . SVG Version: 6.00 Build 0)  -->
<svg version="1.1" id="Capa_1" xmlns="http://www.w3.org/2000/svg" xmlns:xlink="http://www.w3.org/1999/xlink" x="0px" y="0px"
	 viewBox="0 0 512.001 512.001" style="enable-background:new 0 0 512.001 512.001;" xml:space="preserve">
<path style="fill:#7FD2DD;" d="M477.44,304.346H73.474c-13.564,0-24.56,10.996-24.56,24.56l0,0c0,13.564,10.996,24.56,24.56,24.56
	H34.56c-13.564,0-24.56,10.996-24.56,24.56l0,0c0,13.564,10.996,24.56,24.56,24.56h110.838c-13.564,0-24.56,10.996-24.56,24.56l0,0
	c0,13.564,10.996,24.56,24.56,24.56h294.285c13.564,0,24.56-10.996,24.56-24.56l0,0c0-13.564-10.996-24.56-24.56-24.56H400.77
	c13.564,0,24.56-10.996,24.56-24.56l0,0c0-13.564-10.996-24.56-24.56-24.56h76.67c13.564,0,24.56-10.996,24.56-24.56l0,0
	C502,315.342,491.004,304.346,477.44,304.346z"/>
<path style="fill:#F47160;" d="M339.869,304.346c8.218-14.226,12.923-30.736,12.923-48.346c0-53.457-43.335-96.792-96.792-96.792
	S159.208,202.544,159.208,256c0,17.61,4.705,34.121,12.923,48.346L339.869,304.346L339.869,304.346z"/>
<path style="fill:#FED477;" d="M411.514,232.794c-24.514-14.153-36.466-43.007-29.14-70.349l12.013-44.831l-44.831,12.012
	c-27.342,7.326-56.196-4.625-70.349-29.14L256,60.292l-23.206,40.195c-14.153,24.514-43.007,36.466-70.349,29.14l-44.831-12.012
	l12.012,44.831c7.326,27.342-4.625,56.196-29.14,70.349L60.291,256l40.195,23.206c10.546,6.089,18.758,14.902,24.12,25.14h47.526
	c-8.218-14.226-12.923-30.736-12.923-48.346c0-53.457,43.335-96.792,96.792-96.792s96.792,43.335,96.792,96.792
	c0,17.61-4.705,34.121-12.923,48.346h47.525c5.361-10.239,13.574-19.052,24.12-25.14L451.709,256L411.514,232.794z"/>
<path d="M362.6,363.47c-0.65,0-1.31-0.06-1.96-0.19c-0.63-0.13-1.26-0.319-1.87-0.569c-0.6-0.25-1.18-0.561-1.72-0.92
	c-0.55-0.37-1.06-0.79-1.52-1.25s-0.88-0.971-1.24-1.521c-0.36-0.54-0.67-1.12-0.92-1.72c-0.25-0.61-0.45-1.24-0.57-1.87
	c-0.13-0.65-0.2-1.31-0.2-1.96s0.07-1.31,0.2-1.95c0.12-0.64,0.32-1.27,0.57-1.87c0.25-0.609,0.56-1.189,0.92-1.729
	c0.36-0.55,0.78-1.061,1.24-1.521s0.97-0.88,1.52-1.239c0.54-0.36,1.12-0.67,1.72-0.92c0.61-0.25,1.24-0.45,1.87-0.57
	c3.26-0.66,6.71,0.41,9.03,2.729c0.46,0.46,0.88,0.971,1.24,1.521c0.36,0.54,0.67,1.12,0.92,1.729c0.25,0.601,0.45,1.23,0.57,1.87
	c0.13,0.641,0.2,1.3,0.2,1.95s-0.07,1.31-0.2,1.96c-0.12,0.63-0.32,1.26-0.57,1.87c-0.25,0.6-0.56,1.18-0.92,1.72
	c-0.36,0.55-0.78,1.061-1.24,1.521C367.81,362.4,365.23,363.47,362.6,363.47z"/>
<path d="M192.03,412.59c-0.65,0-1.31-0.061-1.95-0.19c-0.64-0.13-1.27-0.319-1.88-0.569c-0.6-0.25-1.18-0.561-1.72-0.92
	c-0.55-0.37-1.06-0.78-1.52-1.25c-0.46-0.46-0.88-0.971-1.24-1.521c-0.37-0.54-0.67-1.12-0.92-1.72c-0.25-0.601-0.45-1.23-0.57-1.87
	c-0.13-0.65-0.2-1.3-0.2-1.96c0-2.63,1.07-5.21,2.93-7.07c0.46-0.46,0.97-0.88,1.52-1.24c0.54-0.359,1.12-0.67,1.72-0.92
	c0.61-0.25,1.24-0.439,1.87-0.569c1.29-0.261,2.62-0.261,3.91,0c0.64,0.13,1.27,0.319,1.87,0.569c0.61,0.25,1.19,0.561,1.73,0.92
	c0.55,0.36,1.06,0.78,1.52,1.24c1.86,1.87,2.93,4.44,2.93,7.07c0,0.66-0.07,1.31-0.2,1.96c-0.12,0.64-0.32,1.26-0.57,1.87
	c-0.25,0.6-0.56,1.18-0.92,1.72c-0.36,0.55-0.78,1.061-1.24,1.521c-0.46,0.47-0.97,0.88-1.52,1.25c-0.54,0.359-1.12,0.67-1.73,0.92
	c-0.6,0.25-1.23,0.439-1.87,0.569C193.34,412.53,192.68,412.59,192.03,412.59z"/>
<path d="M477.44,294.346h-69.835c2.72-2.453,5.702-4.628,8.909-6.48l40.194-23.206c3.094-1.786,5-5.088,5-8.66s-1.906-6.874-5-8.66
	l-40.195-23.206c-20.558-11.869-30.624-36.173-24.48-59.102l12.012-44.831c0.925-3.45-0.062-7.133-2.588-9.659
	c-2.527-2.527-6.21-3.515-9.66-2.588l-44.831,12.013c-22.929,6.143-47.232-3.924-59.101-24.48L264.66,55.292
	c-1.786-3.094-5.087-5-8.66-5s-6.874,1.906-8.66,5l-23.207,40.195c-11.869,20.558-36.17,30.625-59.101,24.48l-44.831-12.013
	c-3.452-0.927-7.133,0.063-9.66,2.588c-2.526,2.526-3.513,6.209-2.588,9.659l12.012,44.831c6.144,22.93-3.922,47.232-24.48,59.102
	L55.292,247.34c-3.094,1.786-5,5.088-5,8.66c0,3.572,1.906,6.874,5,8.66l40.194,23.206c3.208,1.852,6.189,4.027,8.91,6.48H73.474
	c-19.057,0-34.561,15.504-34.561,34.561c0,5.198,1.154,10.133,3.219,14.56H34.56C15.503,343.467,0,358.971,0,378.028
	s15.503,34.561,34.56,34.561h79.497c-2.065,4.428-3.219,9.361-3.219,14.561c0,19.057,15.504,34.56,34.561,34.56h294.285
	c19.057,0,34.561-15.503,34.561-34.56s-15.504-34.561-34.561-34.561h-7.572c2.065-4.428,3.219-9.361,3.219-14.561
	s-1.154-10.133-3.219-14.561h45.329c19.057,0,34.56-15.503,34.56-34.56S496.497,294.346,477.44,294.346z M105.486,270.546
	L80.292,256l25.195-14.546c28.383-16.387,42.281-49.941,33.798-81.598l-7.529-28.101l28.101,7.529
	c6.216,1.666,12.5,2.468,18.717,2.468c25.449-0.002,49.711-13.457,62.88-36.267L256,80.292l14.546,25.195
	c16.386,28.383,49.941,42.28,81.598,33.799l28.101-7.529l-7.529,28.101c-8.483,31.656,5.416,65.211,33.798,81.598L431.708,256
	l-25.195,14.546c-10.123,5.845-18.628,14.002-24.874,23.801h-25.955c0.06-0.156,0.115-0.313,0.174-0.469
	c0.095-0.25,0.186-0.501,0.279-0.752c0.288-0.779,0.568-1.561,0.838-2.347c0.079-0.229,0.16-0.458,0.238-0.688
	c0.326-0.971,0.64-1.946,0.938-2.926c0.062-0.203,0.119-0.407,0.18-0.61c0.242-0.812,0.474-1.626,0.696-2.443
	c0.074-0.271,0.148-0.541,0.219-0.812c0.263-0.998,0.517-1.999,0.751-3.004c0.012-0.052,0.023-0.106,0.035-0.158
	c0.222-0.959,0.427-1.922,0.623-2.887c0.056-0.278,0.111-0.557,0.165-0.836c0.168-0.863,0.325-1.728,0.472-2.595
	c0.029-0.17,0.061-0.34,0.089-0.511c0.166-1.015,0.316-2.032,0.453-3.052c0.035-0.26,0.066-0.52,0.099-0.78
	c0.104-0.823,0.199-1.647,0.285-2.473c0.026-0.253,0.054-0.505,0.079-0.758c0.099-1.026,0.184-2.054,0.253-3.083
	c0.013-0.191,0.021-0.383,0.033-0.574c0.053-0.867,0.096-1.734,0.128-2.603c0.011-0.284,0.021-0.567,0.029-0.851
	c0.031-1.042,0.051-2.086,0.051-3.13c0-58.886-47.907-106.792-106.792-106.792S149.208,197.115,149.208,256
	c0,1.044,0.021,2.087,0.051,3.129c0.008,0.285,0.019,0.57,0.03,0.855c0.032,0.865,0.075,1.73,0.128,2.593
	c0.012,0.195,0.021,0.389,0.034,0.584c0.069,1.029,0.154,2.056,0.253,3.082c0.024,0.252,0.052,0.503,0.078,0.754
	c0.086,0.829,0.181,1.657,0.286,2.484c0.033,0.257,0.063,0.513,0.098,0.77c0.137,1.023,0.287,2.043,0.454,3.061
	c0.027,0.164,0.058,0.328,0.086,0.492c0.147,0.874,0.307,1.745,0.475,2.615c0.053,0.275,0.107,0.551,0.163,0.825
	c0.197,0.974,0.404,1.946,0.628,2.913c0.01,0.044,0.019,0.089,0.029,0.133c0.235,1.01,0.49,2.014,0.754,3.016
	c0.07,0.266,0.143,0.531,0.215,0.797c0.224,0.824,0.458,1.645,0.702,2.463c0.059,0.198,0.115,0.396,0.175,0.594
	c0.299,0.983,0.613,1.961,0.941,2.935c0.076,0.227,0.156,0.451,0.234,0.677c0.271,0.79,0.552,1.576,0.842,2.36
	c0.092,0.248,0.182,0.496,0.276,0.743c0.06,0.157,0.115,0.316,0.175,0.473H130.36C124.114,284.548,115.609,276.391,105.486,270.546z
	 M178.12,294.346c-0.394-0.8-0.774-1.607-1.142-2.419c-0.12-0.263-0.232-0.529-0.349-0.794c-0.243-0.55-0.484-1.101-0.716-1.655
	c-0.132-0.317-0.259-0.636-0.388-0.955c-0.206-0.51-0.409-1.021-0.605-1.535c-0.128-0.336-0.253-0.674-0.377-1.012
	c-0.185-0.504-0.365-1.009-0.541-1.516c-0.119-0.342-0.236-0.685-0.351-1.029c-0.172-0.518-0.337-1.039-0.5-1.561
	c-0.103-0.331-0.208-0.661-0.307-0.993c-0.17-0.57-0.33-1.143-0.489-1.717c-0.079-0.285-0.162-0.568-0.238-0.854
	c-0.226-0.85-0.44-1.704-0.64-2.561c-0.007-0.029-0.013-0.058-0.019-0.087c-0.196-0.844-0.377-1.692-0.548-2.543
	c-0.059-0.292-0.109-0.585-0.165-0.878c-0.111-0.583-0.22-1.167-0.318-1.752c-0.058-0.344-0.11-0.688-0.164-1.033
	c-0.085-0.541-0.166-1.082-0.241-1.624c-0.049-0.36-0.095-0.721-0.14-1.082c-0.066-0.534-0.128-1.069-0.185-1.604
	c-0.038-0.36-0.075-0.721-0.109-1.082c-0.051-0.55-0.095-1.101-0.136-1.652c-0.025-0.344-0.053-0.688-0.074-1.033
	c-0.037-0.602-0.064-1.206-0.089-1.809c-0.012-0.293-0.029-0.586-0.038-0.88c-0.028-0.895-0.044-1.792-0.044-2.689
	c0-47.857,38.935-86.792,86.792-86.792s86.792,38.935,86.792,86.792c0,0.897-0.016,1.794-0.044,2.689
	c-0.009,0.294-0.026,0.586-0.038,0.88c-0.025,0.604-0.052,1.207-0.089,1.809c-0.021,0.344-0.049,0.688-0.074,1.033
	c-0.041,0.551-0.084,1.102-0.136,1.652c-0.034,0.361-0.071,0.722-0.109,1.082c-0.057,0.536-0.118,1.07-0.185,1.604
	c-0.045,0.361-0.091,0.722-0.14,1.082c-0.074,0.542-0.156,1.083-0.241,1.624c-0.054,0.344-0.106,0.689-0.164,1.033
	c-0.099,0.586-0.208,1.169-0.318,1.752c-0.056,0.292-0.107,0.586-0.165,0.878c-0.169,0.841-0.349,1.68-0.542,2.515
	c-0.011,0.048-0.021,0.095-0.033,0.143c-0.198,0.847-0.409,1.69-0.632,2.53c-0.077,0.291-0.162,0.579-0.242,0.868
	c-0.157,0.568-0.316,1.135-0.484,1.7c-0.101,0.337-0.207,0.672-0.312,1.008c-0.161,0.516-0.324,1.031-0.495,1.544
	c-0.116,0.349-0.235,0.696-0.356,1.043c-0.173,0.501-0.351,1-0.534,1.497c-0.126,0.344-0.254,0.688-0.385,1.031
	c-0.193,0.506-0.393,1.009-0.595,1.511c-0.132,0.326-0.261,0.653-0.397,0.977c-0.226,0.542-0.462,1.08-0.699,1.617
	c-0.123,0.277-0.241,0.556-0.366,0.833c-0.349,0.767-0.708,1.53-1.08,2.287c-0.02,0.041-0.039,0.083-0.059,0.125H178.12V294.346z
	 M477.44,343.467h-76.67c-5.523,0-10,4.478-10,10s4.477,10,10,10c8.029,0,14.561,6.532,14.561,14.561
	c0,8.027-6.529,14.557-14.555,14.56c-0.005,0-0.009-0.001-0.014-0.001H230.208c-5.523,0-10,4.478-10,10s4.477,10,10,10H400.75
	c0.007,0,0.013,0.001,0.019,0.001h38.914c8.029,0,14.561,6.532,14.561,14.561s-6.532,14.56-14.561,14.56H145.398
	c-8.029,0-14.561-6.531-14.561-14.56s6.532-14.561,14.561-14.561c5.523,0,10-4.478,10-10s-4.477-10-10-10H34.56
	c-8.028,0-14.56-6.532-14.56-14.561s6.532-14.561,14.56-14.561h38.837c0.026,0,0.051,0.004,0.077,0.004h250.945
	c5.523,0,10-4.478,10-10s-4.477-10-10-10H73.551c-0.026,0-0.051-0.004-0.077-0.004c-8.029,0-14.561-6.531-14.561-14.56
	s6.532-14.561,14.561-14.561h51.131h47.526h167.738h47.525h90.045c8.028,0,14.56,6.532,14.56,14.561S485.468,343.467,477.44,343.467
	z"/>
<g>
</g>
<g>
</g>
<g>
</g>
<g>
</g>
<g>
</g>
<g>
</g>
<g>
</g>
<g>
</g>
<g>
</g>
<g>
</g>
<g>
</g>
<g>
</g>
<g>
</g>
<g>
</g>
<g>
</g>
</svg>
